<svg xmlns="http://www.w3.org/2000/svg" viewBox="0 0 16 16" height="16" width="16" id="Construction-Sign--Streamline-Ultimate.svg"><desc>Construction Sign Streamline Icon: https://streamlinehq.com</desc><defs></defs><title>construction-sign</title><path d="M1.1666666666666665 3.5h13.666666666666666s0.6666666666666666 0 0.6666666666666666 0.6666666666666666v5.666666666666666s0 0.6666666666666666 -0.6666666666666666 0.6666666666666666H1.1666666666666665s-0.6666666666666666 0 -0.6666666666666666 -0.6666666666666666v-5.666666666666666s0 -0.6666666666666666 0.6666666666666666 -0.6666666666666666" fill="none" stroke="#000000" stroke-linecap="round" stroke-linejoin="round" stroke-width="1.5"></path><path d="m2.5 10.5 0 5" fill="none" stroke="#000000" stroke-linecap="round" stroke-linejoin="round" stroke-width="1.5"></path><path d="m13.5 10.5 0 5" fill="none" stroke="#000000" stroke-linecap="round" stroke-linejoin="round" stroke-width="1.5"></path><path d="M3 1.5a1 1 0 1 0 2 0 1 1 0 1 0 -2 0" fill="none" stroke="#000000" stroke-linecap="round" stroke-linejoin="round" stroke-width="1.5"></path><path d="M11 1.5a1 1 0 1 0 2 0 1 1 0 1 0 -2 0" fill="none" stroke="#000000" stroke-linecap="round" stroke-linejoin="round" stroke-width="1.5"></path><path d="m5.5 3.5 -5 5" fill="none" stroke="#000000" stroke-linecap="round" stroke-linejoin="round" stroke-width="1.5"></path><path d="m9.5 3.5 -7 7" fill="none" stroke="#000000" stroke-linecap="round" stroke-linejoin="round" stroke-width="1.5"></path><path d="m13.5 3.5 -7 7" fill="none" stroke="#000000" stroke-linecap="round" stroke-linejoin="round" stroke-width="1.5"></path><path d="m15.5 5.5 -5 5" fill="none" stroke="#000000" stroke-linecap="round" stroke-linejoin="round" stroke-width="1.5"></path></svg>