<svg viewBox="0 0 16 16" xmlns="http://www.w3.org/2000/svg" height="16" width="16" id="Construction-Shovel--Streamline-Ultimate.svg"><desc>Construction Shovel Streamline Icon: https://streamlinehq.com</desc><path d="M6.421999999999999 12.584a7.448666666666666 7.448666666666666 0 0 0 -1.2559999999999998 -1.0166666666666666 2.9333333333333336 2.9333333333333336 0 0 0 -4.315333333333333 1.448A7.362666666666667 7.362666666666667 0 0 0 0.5 15.5h15c0 -2.5 -0.5093333333333333 -5.045999999999999 -2.9226666666666667 -5.856a4.004666666666666 4.004666666666666 0 0 0 -3.4113333333333333 0.41133333333333333 13.491999999999999 13.491999999999999 0 0 0 -3.733333333333333 3.8506666666666662" fill="none" stroke="#000000" stroke-linecap="round" stroke-linejoin="round" stroke-width="1.5"></path><path d="M0.5 3.5079999999999996 3.5079999999999996 0.5" fill="none" stroke="#000000" stroke-linecap="round" stroke-linejoin="round" stroke-width="1.5"></path><path d="m2.0039999999999996 2.0039999999999996 4.512666666666666 4.512666666666666" fill="none" stroke="#000000" stroke-linecap="round" stroke-linejoin="round" stroke-width="1.5"></path><path d="m6.715333333333334 9.723333333333333 -0.9506666666666665 -0.9506666666666665a1.0666666666666667 1.0666666666666667 0 0 1 0 -1.5039999999999998L7.266666666666667 5.764666666666667a1.0666666666666667 1.0666666666666667 0 0 1 1.5039999999999998 0l0.9506666666666665 0.9506666666666665a1.0666666666666667 1.0666666666666667 0 0 1 0.2573333333333333 0.41533333333333333l0.312 0.9373333333333332" fill="none" stroke="#000000" stroke-linecap="round" stroke-linejoin="round" stroke-width="1.5"></path></svg>