<svg viewBox="0 0 24 24" xmlns="http://www.w3.org/2000/svg" height="24" width="24" id="Hardware-Nails--Streamline-Ultimate.svg"><desc>Hardware Nails Streamline Icon: https://streamlinehq.com</desc><path d="M8.25 3.75a1.5 1.5 0 0 0 0 -3h-6a1.5 1.5 0 0 0 0 3Z" fill="none" stroke="#000000" stroke-linecap="round" stroke-linejoin="round" stroke-width="1.5"></path><path d="m6.75 17.25 -1.5 3 -1.5 -3 0 -13.5 3 0 0 13.5z" fill="none" stroke="#000000" stroke-linecap="round" stroke-linejoin="round" stroke-width="1.5"></path><path d="M20.951 10.88a1.5 1.5 0 1 0 1.6 -2.54l-5.082 -3.194a1.5 1.5 0 0 0 -1.6 2.54Z" fill="none" stroke="#000000" stroke-linecap="round" stroke-linejoin="round" stroke-width="1.5"></path><path d="M12.494 21.509 9.627 23.25l0.328 -3.338 7.187 -11.428 2.539 1.597 -7.187 11.428z" fill="none" stroke="#000000" stroke-linecap="round" stroke-linejoin="round" stroke-width="1.5"></path></svg>