<svg xmlns="http://www.w3.org/2000/svg" viewBox="0 0 16 16" height="16" width="16" id="Election-Campaign-3--Streamline-Ultimate.svg"><desc>Election Campaign 3 Streamline Icon: https://streamlinehq.com</desc><defs></defs><title>election-campaign-3</title><path d="M6.305999999999999 5.300666666666666c1.4 -0.6633333333333333 3.4326666666666665 -3.8666666666666663 3.4326666666666665 -3.8666666666666663l2.861333333333333 6.046666666666667s-3.7613333333333334 -0.45466666666666666 -5.1626666666666665 0.208l-0.7166666666666666 0.3393333333333333a1.3213333333333332 1.3213333333333332 0 0 1 -1.1333333333333333 -2.388Z" fill="none" stroke="#000000" stroke-linecap="round" stroke-linejoin="round" stroke-width="1.5"></path><path d="M0.8333333333333333 9.5a1.6666666666666665 1.6666666666666665 0 1 0 3.333333333333333 0 1.6666666666666665 1.6666666666666665 0 1 0 -3.333333333333333 0" fill="none" stroke="#000000" stroke-linecap="round" stroke-linejoin="round" stroke-width="1.5"></path><path d="M1.5 13.074666666666666a1.8866666666666667 1.8866666666666667 0 0 0 -1 1.7586666666666666v0.6666666666666666" fill="none" stroke="#000000" stroke-linecap="round" stroke-linejoin="round" stroke-width="1.5"></path><path d="M4.833333333333333 15.5v-1.1753333333333331c1.9626666666666666 -0.8913333333333333 3.333333333333333 -2.1999999999999997 3.333333333333333 -4.491333333333333a1 1 0 0 0 -2 0c0 1.2839999999999998 -0.6666666666666666 1.75 -1.6666666666666665 2.405333333333333" fill="none" stroke="#000000" stroke-linecap="round" stroke-linejoin="round" stroke-width="1.5"></path><path d="m12.833333333333332 3.5 1.6666666666666665 -1" fill="none" stroke="#000000" stroke-linecap="round" stroke-linejoin="round" stroke-width="1.5"></path><path d="m11.833333333333332 1.8333333333333333 1.3333333333333333 -1.3333333333333333" fill="none" stroke="#000000" stroke-linecap="round" stroke-linejoin="round" stroke-width="1.5"></path><path d="m13.5 5.166666666666666 2 -0.3333333333333333" fill="none" stroke="#000000" stroke-linecap="round" stroke-linejoin="round" stroke-width="1.5"></path></svg>